<?xml version="1.0" encoding="UTF-8"?>
<svg width="40px" height="40px" viewBox="0 0 40 40" version="1.1" xmlns="http://www.w3.org/2000/svg" xmlns:xlink="http://www.w3.org/1999/xlink">
    <title>search</title>
    <g id="Page-1" stroke="none" stroke-width="1" fill="none" fill-rule="evenodd">
        <g id="search">
            <path d="M20,36.4757709 C29.099317,36.4757709 36.4757709,29.099317 36.4757709,20 C36.4757709,10.900683 29.099317,3.52422907 20,3.52422907 C10.900683,3.52422907 3.52422907,10.900683 3.52422907,20 C3.52422907,29.099317 10.900683,36.4757709 20,36.4757709 L20,36.4757709 Z M20,40 L20,40 C8.954305,40 0,31.045695 0,20 C0,8.954305 8.954305,0 20,0 C31.045695,0 40,8.954305 40,20 C40,31.045695 31.045695,40 20,40 L20,40 Z" id="Shape" fill="#FFFFFF" fill-rule="nonzero"></path>
            <g id="Group" transform="translate(9.000000, 9.000000)">
                <path d="M12.7621145,17.9779736 L12.7621145,16.7621145 L19.2088575,16.7621145 C19.5285067,16.7621145 19.7933604,17.031206 19.7933604,17.370044 C19.7933604,17.7088821 19.5285067,17.9779736 19.2088575,17.9779736 L12.7621145,17.9779736 Z M19.2088575,19.7400881 C20.5080119,19.7400881 21.555475,18.6758649 21.555475,17.370044 C21.555475,16.0642232 20.5080119,15 19.2088575,15 L11.8810573,15 L11,15 L11,15.8810573 L11,18.8590308 L11,19.7400881 L11.8810573,19.7400881 L19.2088575,19.7400881 L19.2088575,19.7400881 Z" id="Shape-Copy" fill="#FFFFFF" fill-rule="nonzero" transform="translate(16.277737, 17.370044) rotate(47.000000) translate(-16.277737, -17.370044) "></path>
                <circle id="Oval" stroke="#FFFFFF" stroke-width="2" cx="8" cy="8" r="7"></circle>
            </g>
        </g>
    </g>
</svg>